<svg xmlns="http://www.w3.org/2000/svg" xmlns:xlink="http://www.w3.org/1999/xlink" version="1.1" width="1000" height="1000" viewBox="0 0 1000 1000" xml:space="preserve">
<desc>Created with Fabric.js 3.5.0</desc>
<defs>
</defs>
<rect x="0" y="0" width="100%" height="100%" fill="#c00cc0"/>
<g transform="matrix(1.7737 0 0 1.7737 499.9927 499.9917)" id="354941">
<path style="stroke: none; stroke-width: 1; stroke-dasharray: none; stroke-linecap: butt; stroke-dashoffset: 0; stroke-linejoin: miter; stroke-miterlimit: 4; is-custom-font: none; font-file-url: none; fill: rgb(255,255,255); fill-rule: evenodd; opacity: 1;" vector-effect="non-scaling-stroke" transform=" translate(-228.5, -256.265)" d="m 297.8 173.62 l 15.62 15.25 c 4.11 4.02 4.19 10.66 0.18 14.78 l -12.29 12.57 a 82.424 82.424 0 0 1 7.96 20.49 l 16.11 -0.2 c 5.74 -0.07 10.5 4.58 10.57 10.32 l 0.25 21.83 c 0.07 5.75 -4.57 10.51 -10.32 10.57 l -17.57 0.21 a 82.532 82.532 0 0 1 -8.87 20.09 l 11.53 11.26 c 4.11 4.02 4.19 10.67 0.18 14.77 l -15.25 15.63 c -4.02 4.11 -10.67 4.19 -14.78 0.17 l -12.58 -12.28 a 82.505 82.505 0 0 1 -20.48 7.96 l 0.19 16.1 c 0.07 5.75 -4.58 10.51 -10.32 10.58 l -21.83 0.25 c -5.74 0.07 -10.5 -4.57 -10.57 -10.32 l -0.21 -17.57 a 83.289 83.289 0 0 1 -20.09 -8.88 l -11.26 11.54 c -4.02 4.11 -10.67 4.19 -14.78 0.17 l -15.61 -15.25 c -4.12 -4.02 -4.2 -10.66 -0.18 -14.78 l 12.28 -12.57 c -3.54 -6.44 -6.24 -13.34 -7.96 -20.48 l -16.11 0.19 c -5.74 0.07 -10.5 -4.58 -10.57 -10.32 l -0.25 -21.83 c -0.07 -5.74 4.57 -10.5 10.32 -10.57 l 17.57 -0.21 a 83.765 83.765 0 0 1 8.87 -20.1 l -11.53 -11.26 c -4.11 -4.02 -4.18 -10.66 -0.17 -14.77 l 15.25 -15.62 c 4.01 -4.11 10.66 -4.19 14.77 -0.17 l 12.58 12.28 a 82.503 82.503 0 0 1 20.48 -7.96 l -0.19 -16.1 c -0.07 -5.74 4.58 -10.5 10.33 -10.57 l 21.82 -0.26 c 5.75 -0.07 10.5 4.57 10.57 10.32 l 0.21 17.57 a 83.224 83.224 0 0 1 20.11 8.87 l 11.25 -11.53 c 4.02 -4.11 10.67 -4.18 14.78 -0.17 h -0.01 z m -81.6 -57.98 V 91.29 a 46.446 46.446 0 0 1 -20.97 -12.07 c -8.4 -8.44 -13.6 -20.05 -13.6 -32.82 c 0 -12.75 5.19 -24.35 13.6 -32.76 l 0.04 -0.04 c 8.41 -8.4 20 -13.6 32.76 -13.6 c 12.76 0 24.36 5.2 32.77 13.6 l 0.04 0.04 c 8.4 8.41 13.6 20.01 13.6 32.76 c 0 12.77 -5.2 24.38 -13.62 32.79 a 46.113 46.113 0 0 1 -22.35 12.45 v 23.65 c -6.59 0.03 -13.21 0.17 -19.8 0.25 c -0.83 0.01 -1.65 0.04 -2.47 0.1 z m 22.88 305.41 c 8.35 2.04 15.82 6.37 21.72 12.26 l 0.04 0.05 c 8.4 8.41 13.6 20 13.6 32.76 c 0 12.76 -5.2 24.35 -13.6 32.76 l -0.04 0.05 c -8.41 8.4 -20.01 13.6 -32.77 13.6 c -12.76 0 -24.35 -5.2 -32.76 -13.6 l -0.04 -0.05 c -8.41 -8.41 -13.6 -20 -13.6 -32.76 c 0 -12.76 5.19 -24.35 13.6 -32.76 l 0.04 -0.05 c 5.86 -5.85 13.27 -10.15 21.54 -12.22 v -23.84 c 7.16 -0.01 14.35 -0.18 21.5 -0.26 l 0.77 -0.02 v 24.08 z m 6.02 27.96 c -4.33 -4.33 -10.37 -7.02 -17.07 -7.02 c -6.69 0 -12.73 2.69 -17.06 7.02 l -0.05 0.04 c -4.33 4.34 -7.02 10.37 -7.02 17.07 c 0 6.7 2.69 12.73 7.02 17.07 l 0.05 0.04 c 4.33 4.33 10.37 7.02 17.06 7.02 c 6.7 0 12.74 -2.69 17.07 -7.02 l 0.04 -0.04 c 4.34 -4.34 7.03 -10.37 7.03 -17.07 c 0 -6.7 -2.69 -12.73 -7.03 -17.07 l -0.04 -0.04 z m 0 -419.71 c -4.33 -4.34 -10.37 -7.03 -17.07 -7.03 c -6.69 0 -12.73 2.69 -17.06 7.03 l -0.05 0.04 c -4.33 4.33 -7.02 10.37 -7.02 17.06 c 0 6.7 2.69 12.74 7.02 17.08 c 4.41 4.36 10.45 7.06 17.11 7.06 c 6.67 0 12.71 -2.7 17.07 -7.06 c 4.38 -4.34 7.07 -10.38 7.07 -17.08 c 0 -6.69 -2.69 -12.73 -7.03 -17.06 l -0.04 -0.04 z m 165.49 285.36 c 12.76 0 24.36 5.2 32.77 13.6 l 0.04 0.04 c 8.4 8.41 13.6 20.01 13.6 32.77 c 0 12.76 -5.2 24.35 -13.6 32.76 l -0.04 0.05 c -8.41 8.4 -20.01 13.59 -32.77 13.59 c -12.76 0 -24.37 -5.2 -32.78 -13.62 c -8.42 -8.37 -13.63 -19.98 -13.63 -32.78 c 0 -4.68 0.7 -9.2 1.99 -13.46 l -22.02 -12.72 c 2.22 -5.46 3.3 -11.3 3.23 -17.13 c -0.02 -2.34 -0.24 -4.67 -0.63 -6.97 l 30.75 17.75 l 0.28 -0.28 c 8.39 -8.39 20.01 -13.6 32.81 -13.6 z m 17.07 29.3 c -4.33 -4.34 -10.37 -7.03 -17.07 -7.03 c -6.66 0 -12.71 2.71 -17.07 7.07 a 24.07 24.07 0 0 0 -7.06 17.07 c 0 6.67 2.7 12.7 7.06 17.06 c 4.34 4.38 10.38 7.07 17.07 7.07 c 6.7 0 12.74 -2.69 17.07 -7.02 l 0.04 -0.05 c 4.34 -4.33 7.03 -10.36 7.03 -17.06 c 0 -6.7 -2.69 -12.74 -7.03 -17.07 l -0.04 -0.04 z m -381.25 -29.3 c 12.54 0 23.94 5 32.29 13.09 l 28.75 -16.61 c -0.21 1.85 -0.3 3.7 -0.28 5.56 c 0.06 6.15 1.42 12.27 4.03 17.93 l -20.69 11.95 c 1.5 4.56 2.31 9.43 2.31 14.49 c 0 12.8 -5.21 24.41 -13.6 32.81 c -8.44 8.39 -20.05 13.59 -32.81 13.59 c -12.76 0 -24.36 -5.19 -32.77 -13.59 l -0.04 -0.05 c -8.4 -8.41 -13.6 -20 -13.6 -32.76 c 0 -12.77 5.2 -24.37 13.62 -32.79 c 8.37 -8.41 19.98 -13.62 32.79 -13.62 z M 63.48 344 a 24.096 24.096 0 0 0 -17.07 -7.07 c -6.67 0 -12.71 2.71 -17.07 7.07 c -4.38 4.33 -7.07 10.37 -7.07 17.07 c 0 6.7 2.69 12.73 7.03 17.06 l 0.04 0.05 c 4.33 4.33 10.37 7.02 17.07 7.02 c 6.69 0 12.73 -2.69 17.07 -7.02 c 4.36 -4.41 7.06 -10.44 7.06 -17.11 s -2.7 -12.71 -7.06 -17.07 z m 347.11 -239.2 c 12.81 0 24.42 5.2 32.82 13.6 c 8.39 8.39 13.59 20 13.59 32.81 c 0 12.76 -5.2 24.36 -13.6 32.77 l -0.04 0.04 c -8.41 8.4 -20.01 13.6 -32.77 13.6 c -12.8 0 -24.42 -5.21 -32.81 -13.6 l -0.59 -0.61 l -27.45 15.87 c 0.08 -1.15 0.11 -2.3 0.09 -3.44 a 44.001 44.001 0 0 0 -4.79 -19.5 l 21 -12.14 c -1.2 -4.12 -1.86 -8.48 -1.86 -12.99 c 0 -12.76 5.2 -24.35 13.6 -32.76 l 0.05 -0.05 c 8.41 -8.4 20 -13.6 32.76 -13.6 z m 17.08 29.34 a 24.094 24.094 0 0 0 -17.08 -7.06 c -6.7 0 -12.73 2.69 -17.07 7.02 l -0.04 0.04 c -4.33 4.34 -7.02 10.37 -7.02 17.07 c 0 6.66 2.7 12.71 7.06 17.07 a 24.096 24.096 0 0 0 17.07 7.07 c 6.7 0 12.74 -2.69 17.07 -7.03 l 0.04 -0.04 c 4.34 -4.33 7.03 -10.37 7.03 -17.07 c 0 -6.67 -2.71 -12.72 -7.06 -17.07 z M 46.41 104.8 c 12.76 0 24.35 5.2 32.76 13.6 l 0.05 0.05 c 8.4 8.41 13.6 20 13.6 32.76 c 0 3.76 -0.46 7.42 -1.3 10.92 l 22.22 13.47 a 43.973 43.973 0 0 0 -3.85 23.58 l -28.62 -17.35 c -0.66 0.75 -1.35 1.49 -2.05 2.19 c -8.39 8.39 -20.01 13.6 -32.81 13.6 c -12.81 0 -24.42 -5.21 -32.81 -13.6 C 5.2 175.58 0 163.98 0 151.21 c 0 -12.76 5.2 -24.35 13.6 -32.76 l 0.04 -0.05 c 8.41 -8.4 20.01 -13.6 32.77 -13.6 z m 17.07 29.3 c -4.34 -4.33 -10.37 -7.02 -17.07 -7.02 c -6.7 0 -12.74 2.69 -17.07 7.02 l -0.04 0.04 c -4.34 4.34 -7.03 10.37 -7.03 17.07 c 0 6.7 2.69 12.74 7.03 17.07 c 4.4 4.36 10.44 7.07 17.11 7.07 c 6.66 0 12.71 -2.71 17.07 -7.07 a 24.088 24.088 0 0 0 7.06 -17.07 c 0 -6.7 -2.69 -12.73 -7.02 -17.07 l -0.04 -0.04 z m 164.5 79.25 c 23.7 -0.28 43.15 18.71 43.43 42.4 c 0.29 23.7 -18.71 43.15 -42.41 43.43 c -23.69 0.29 -43.14 -18.71 -43.42 -42.4 c -0.28 -23.7 18.71 -43.15 42.4 -43.43 z" stroke-linecap="round"/>
</g>
</svg>