<svg xmlns="http://www.w3.org/2000/svg" xmlns:xlink="http://www.w3.org/1999/xlink" version="1.1" width="1000" height="1000" viewBox="0 0 1000 1000" xml:space="preserve">
<desc>Created with Fabric.js 3.5.0</desc>
<defs>
</defs>
<rect x="0" y="0" width="100%" height="100%" fill="#c00cc0"/>
<g transform="matrix(6.921 0 0 6.921 523.0664 518.1242)" id="369539">
<path style="stroke: none; stroke-width: 1; stroke-dasharray: none; stroke-linecap: butt; stroke-dashoffset: 0; stroke-linejoin: miter; stroke-miterlimit: 4; is-custom-font: none; font-file-url: none; fill: rgb(255,255,255); fill-rule: evenodd; opacity: 1;" vector-effect="non-scaling-stroke" transform=" translate(-58.25, -61.42)" d="M 17.88 22.75 a 2.19 2.19 0 0 1 3.05 0.6 L 22 24.66 l 3.84 -4.87 a 2.2 2.2 0 1 1 3.4 2.78 L 23.6 29.66 a 2.74 2.74 0 0 1 -0.52 0.5 A 2.21 2.21 0 0 1 20 29.55 L 17.28 25.8 a 2.21 2.21 0 0 1 0.6 -3.05 Z M 81.13 59 a 27.86 27.86 0 0 1 23.31 43.1 l 12.06 13.14 l -8.31 7.6 L 96.56 110.09 A 27.86 27.86 0 1 1 81.13 59 Z M 38.47 71.54 a 3.07 3.07 0 0 1 -2.9 -3.17 a 3 3 0 0 1 2.9 -3.17 h 9 a 3.07 3.07 0 0 1 2.9 3.17 a 3 3 0 0 1 -2.9 3.17 Z M 93 44.89 c -0.56 2.11 -5.31 2.43 -6.38 0 V 7.43 a 1.06 1.06 0 0 0 -0.3 -0.76 a 1.08 1.08 0 0 0 -0.75 -0.3 H 7.39 a 1 1 0 0 0 -1 1.06 V 95.74 a 1 1 0 0 0 1 1.05 H 37.72 c 3.21 0.34 3.3 5.88 0 6.38 H 7.43 A 7.48 7.48 0 0 1 0 95.74 V 7.43 A 7.3 7.3 0 0 1 2.19 2.19 A 7.35 7.35 0 0 1 7.43 0 H 85.6 a 7.32 7.32 0 0 1 5.24 2.19 A 7.39 7.39 0 0 1 93 7.43 c 0 36.56 0 -18 0 37.46 Z M 38.44 27.47 a 3.07 3.07 0 0 1 -2.91 -3.17 a 3 3 0 0 1 2.91 -3.17 H 68.21 a 3.07 3.07 0 0 1 2.91 3.17 a 3 3 0 0 1 -2.91 3.17 Z m 0 22 a 3.06 3.06 0 0 1 -2.91 -3.16 a 3 3 0 0 1 2.91 -3.17 H 68.21 a 3.07 3.07 0 0 1 2.91 3.17 a 3 3 0 0 1 -2.91 3.16 Z m 32.19 40 a 3.4 3.4 0 0 1 -0.38 -0.49 a 3.71 3.71 0 0 1 -0.29 -0.56 A 3.54 3.54 0 0 1 75.05 84 a 2.78 2.78 0 0 1 0.56 0.41 l 0 0 c 1 0.93 1.28 1.12 2.36 2.08 l 0.92 0.83 l 7.58 -8.13 c 3.21 -3.3 8.32 1.53 5.12 4.9 L 82.15 94.26 l -0.47 0.5 a 3.56 3.56 0 0 1 -5 0.22 l 0 0 L 76 94.28 c -0.58 -0.52 -1.18 -1 -1.79 -1.57 c -1.4 -1.22 -2.22 -1.89 -3.54 -3.21 Z M 81.15 64.85 A 22.17 22.17 0 1 1 59 87 A 22.17 22.17 0 0 1 81.15 64.85 Z M 23.54 63.59 a 5.1 5.1 0 1 1 -5.09 5.09 a 5.09 5.09 0 0 1 5.09 -5.09 Z M 25.66 42 a 2.09 2.09 0 0 1 3 0 a 2.12 2.12 0 0 1 0 3 l -2.07 2.13 l 2.07 2.13 a 2.1 2.1 0 0 1 -3 3 l -2.05 -2.1 l -2.07 2.11 a 2.07 2.07 0 0 1 -3 0 a 2.13 2.13 0 0 1 0 -3 l 2.08 -2.13 L 18.57 45 a 2.1 2.1 0 0 1 0 -3 a 2.07 2.07 0 0 1 2.94 0 l 2.06 2.11 L 25.66 42 Z" stroke-linecap="round"/>
</g>
</svg>